<?xml version="1.0" encoding="utf-8"?>
<!-- Generator: Adobe Adobe Illustrator 24.2.0, SVG Export Plug-In . SVG Version: 6.00 Build 0)  -->
<svg version="1.1" xmlns="http://www.w3.org/2000/svg" xmlns:xlink="http://www.w3.org/1999/xlink" x="0px" y="0px"
	 viewBox="0 0 594 576" style="enable-background:new 0 0 594 576;" xml:space="preserve">
<style type="text/css">
	.st0{display:none;}
	.st1{display:inline;fill:#FFFFFF;stroke:#000000;stroke-miterlimit:10;}
	.st2{display:inline;}
	.st3{fill:#FFFFFF;stroke:#000000;stroke-miterlimit:10;}
	.st4{display:inline;fill:#FFFFFF;stroke:#C1272D;stroke-width:6;stroke-linejoin:round;stroke-miterlimit:10;}
	.st5{display:inline;fill:#FFFFFF;stroke:#C1272D;stroke-width:4;stroke-miterlimit:10;}
	.st6{fill:#FFFF00;stroke:#C1272D;stroke-width:4;stroke-linejoin:round;stroke-miterlimit:10;}
	.st7{fill:#FFFFFF;stroke:#C1272D;stroke-width:6;stroke-linejoin:round;stroke-miterlimit:10;}
	.st8{fill:#FFFFFF;stroke:#C1272D;stroke-width:4;stroke-miterlimit:10;}
	.st9{fill:#FFFFFF;stroke:#BAADAD;stroke-width:20;stroke-linejoin:round;stroke-miterlimit:10;}
	.st10{fill:#FFFFFF;stroke:#BAADAD;stroke-width:12;stroke-linejoin:round;stroke-miterlimit:10;}
	.st11{fill:#E0F2FF;stroke:#3578AB;stroke-width:6;stroke-linejoin:round;stroke-miterlimit:10;}
	.st12{fill:#FFFFFF;stroke:#3578AB;stroke-width:6;stroke-linejoin:round;stroke-miterlimit:10;}
</style>
<g id="Ship" class="st0">
	<g id="dual" class="st2">
	</g>
	<g id="rear" class="st2">
	</g>
</g>
<g id="Ship_2" class="st0">
</g>
<g id="Ship_3">
	<g id="Layer_6">
	</g>
	<g id="Layer_6_copy">
	</g>
</g>
<g id="Asteroid">
	<path class="st9" d="M249.95,496.52c15.06,18.58,40.76,25.03,61.14,37.55c10.52,6.46,21.51,13.08,33.79,14.33
		c29.2,2.96,51.68-24.11,68.32-48.29c6.91-10.05,13.82-20.09,20.73-30.14c4.16-6.04,8.46-12.23,14.53-16.34
		c8.94-6.06,18.44,0.18,28.55-3.62c41.49-15.61,52.59-84.23,94.34-99.13c-17.86-26.21-23.7-58.53-29.11-89.78
		c-4.38-25.25-8.77-50.67-8.61-76.3c0.32-53.52,19.1-112.69-10.94-156.99c-2.68-3.96-5.85-7.8-10.12-9.95
		c-4.74-2.38-10.3-2.42-15.59-2c-35.83,2.88-70.09,24.43-105.48,18.15c-22.83-4.05-43.41-19.5-66.58-18.65
		C296.4,16.41,266.6,41.6,241.05,27.8c0-0.35,0-0.71,5.11-3.52c-53.17-9.07-111.33-17.33-158.12,9.49
		C78.34,39.32,68.9,47.05,66,57.84c-2,7.42-0.64,15.38-2.25,22.89c-1.83,8.48-7.28,15.72-9.98,23.96
		c-6.65,20.27,3.69,44.95-8.37,62.56C33.64,184.42,32.12,182.71,18,198c-4.06,4.39,2.73,3.68,0,9c-7.6,14.8,169.6,120.2,162,135
		C180,342,149.14,372.1,249.95,496.52z"/>
	<circle class="st10" cx="405" cy="153" r="45"/>
</g>
<g id="Ship_4">
</g>
</svg>
